# AST/ASF file generated using VICON BodyLanguage
# -----------------------------------------------
:version 1.10
:name VICON
:units
  mass 1.0
  length 0.45
  angle deg
:documentation
   .ast/.asf automatically generated from VICON data using
   VICON BodyBuilder and BodyLanguage model FoxedUp or BRILLIANT.MOD
:root
   order TX TY TZ RX RY RZ
   axis XYZ
   position 0 0 0  
   orientation 0 0 0 
:bonedata
  begin
     id 1 
     name lhipjoint
     direction 0.702568 -0.596508 0.388042 
     length 2.56661 
     axis 0 0 0  XYZ
  end
  begin
     id 2 
     name lfemur
     direction 0.34202 -0.939693 0  
     length 6.58374  
     axis 0 0 20  XYZ
    dof rx ry rz
    limits (-160.0 20.0)
           (-70.0 70.0)
           (-60.0 70.0)
  end
  begin
     id 3 
     name ltibia
     direction 0.34202 -0.939693 0   
     length 6.62538   
     axis 0 0 20   XYZ
    dof rx
    limits (-10.0 170.0)
  end
  begin
     id 4 
     name lfoot
     direction 0.10455 -0.287249 0.952133   
     length 2.26699   
     axis -90 7.62852e-016 20   XYZ
    dof rx rz
    limits (-45.0 90.0)
           (-70.0 20.0)
  end
  begin
     id 5 
     name ltoes
     direction 1.53572e-011 -4.22322e-011 1   
     length 1.12949   
     axis -90 7.62852e-016 20   XYZ
    dof rx
    limits (-90.0 20.0)
  end
  begin
     id 6 
     name rhipjoint
     direction -0.728055 -0.574632 0.373811   
     length 2.66432  
     axis 0 0 0  XYZ 
  end
  begin
     id 7 
     name rfemur
     direction -0.34202 -0.939693 0   
     length 6.66732   
     axis 0 0 -20   XYZ
    dof rx ry rz
    limits (-160.0 20.0)
           (-70.0 70.0)
           (-70.0 60.0)
  end
  begin
     id 8 
     name rtibia
     direction -0.34202 -0.939693 0   
     length 6.59288   
     axis 0 0 -20   XYZ
    dof rx
    limits (-10.0 170.0)
 end
 begin
     id 9 
     name rfoot
     direction -0.119193 -0.327479 0.93731   
     length 2.38061  
     axis -90 -7.62852e-016 -20   XYZ
    dof rx rz
    limits (-45.0 90.0)
           (-20.0 70.0)
  end
  begin
     id 10 
     name rtoes
     direction -1.53547e-011 -4.21827e-011 1   
     length 1.17899   
     axis -90 -7.62852e-016 -20   XYZ
    dof rx
    limits (-90.0 20.0)
  end
  begin
     id 11 
     name lowerback
     direction -0.000416114 0.999912 -0.0132284   
     length 2.12109   
     axis 0 0 0   XYZ
    dof rx ry rz
    limits (-20.0 45.0)
           (-30.0 30.0)
           (-30.0 30.0)
  end
  begin
     id 12 
     name upperback
     direction -0.00136371 0.99809 0.0617608   
     length 2.10067   
     axis 0 0 0   XYZ
    dof rx ry rz
    limits (-20.0 45.0)
           (-30.0 30.0)
           (-30.0 30.0)
  end
  begin
     id 13 
     name thorax
     direction -3.43026e-005 0.997776 0.0666515   
     length 2.10618   
     axis 0 0 0   XYZ
    dof rx ry rz
    limits (-20.0 45.0)
           (-30.0 30.0)
           (-30.0 30.0)
  end
  begin
     id 14 
     name lowerneck
     direction 0.0398646 0.998418 0.0396592   
     length 1.83817   
     axis 0 0 0   XYZ
    dof rx ry rz
    limits (-20.0 45.0)
           (-30.0 30.0)
           (-30.0 30.0)
  end
  begin
     id 15 
     name upperneck
     direction -0.0367268 0.961527 -0.272244   
     length 1.81975   
     axis 0 0 0   XYZ
    dof rx ry rz
    limits (-20.0 45.0)
           (-30.0 30.0)
           (-30.0 30.0)
  end
  begin
     id 16
     name head
     direction -0.0182665 0.99536 -0.0944669  
     length 1.86026  
     axis 0 0 0   XYZ
    dof rx ry rz
    limits (-20.0 45.0)
           (-30.0 30.0)
           (-30.0 30.0)
  end
  begin
     id 17 
     name lclavicle
     direction 0.924239 0.361045 0.124212  
     length 3.26878  
     axis 0 0 0   XYZ
    dof ry rz
    limits (-20.0 10.0)
           (0.0 20.0)
  end
  begin
     id 18 
     name lhumerus
     direction 1 -4.48968e-011 -2.56583e-027   
     length 4.58538   
     axis 180 -30 -90   XYZ
    dof rx ry rz
    limits (-60.0 90.0)
           (-90.0 90.0)
           (-90.0 90.0)
  end
  begin
     id 19
     name lradius
     direction 1 -4.4898e-011 -5.50375e-027   
     length 2.68935   
     axis 180 -30 -90   XYZ
    dof rx
    limits (-10.0 170.0)
  end
  begin
     id 20
     name lwrist
     direction 1 -4.48939e-011 -1.48955e-026   
     length 1.34468   
     axis 9.0955e-015 90 90   XYZ
    dof ry
    limits (-180.0 0.0)
 end
  begin
     id 21 
     name lhand
     direction 1 -4.48936e-011 -2.97907e-026   
     length 0.585058   
     axis 1.90115e-014 90 90   XYZ
    dof rx rz
    limits (-90.0 90.0)
           (-45.0 45.0)
  end
  begin
     id 22 
     name lfingers
     direction 1 -4.49082e-011 -5.96235e-026   
     length 0.471689   
     axis 3.80223e-014 90 90   XYZ
    dof rx
    limits (0.0 90.0)
  end
  begin
     id 23
     name lthumb
     direction 0.707107 -6.3489e-011 0.707107   
     length 0.677253   
     axis -90 45 -3.84942e-014   XYZ
    dof rx rz
    limits (-45.0 45.0)
           (-45.0 45.0)
  end
  begin
     id 24 
     name rclavicle
     direction -0.923098 0.371783 0.0983239   
     length 3.19656  
     axis 0 0 0   XYZ 
    dof ry rz
    limits (-10.0 20.0)
           (-20.0 0.0)
  end
  begin
     id 25 
     name rhumerus
     direction -1 -4.48976e-011 -2.5492e-027  
     length 4.4745   
     axis 180 30 90   XYZ
    dof rx ry rz
    limits (-90.0 60.0)
           (-90.0 90.0)
           (-90.0 90.0)
  end
  begin
     id 26 
     name rradius
     direction -1 -4.48941e-011 -4.36555e-027   
     length 2.93896   
     axis 180 30 90   XYZ
    dof rx
    limits (-10.0 170.0)
  end
  begin
     id 27 
     name rwrist
     direction -1 -4.49044e-011 -1.49032e-026   
     length 1.46948   
     axis 9.0955e-015 -90 -90   XYZ
    dof ry
    limits (-180.0 0.0)
  end
  begin
     id 28
     name rhand
     direction -1 -4.48826e-011 -2.97749e-026   
     length 0.405092   
     axis 1.90115e-014 -90 -90   XYZ
    dof rx rz
    limits (-90.0 90.0)
           (-45.0 45.0)
  end
  begin
     id 29
     name rfingers
     direction -1 -4.49209e-011 -5.96602e-026   
     length 0.326596   
     axis 3.80223e-014 -90 -90   XYZ
    dof rx
    limits (0.0 90.0)
  end
  begin
     id 30
     name rthumb
     direction -0.707107 -6.34776e-011 0.707107   
     length 0.468928   
     axis -90 -45 3.84942e-014   XYZ
    dof rx rz
    limits (-45.0 45.0)
           (-45.0 45.0)
  end
:hierarchy
  begin
    root lhipjoint rhipjoint lowerback
    lhipjoint lfemur
    lfemur ltibia
    ltibia lfoot
    lfoot ltoes
    rhipjoint rfemur
    rfemur rtibia
    rtibia rfoot
    rfoot rtoes
    lowerback upperback
    upperback thorax
    thorax lowerneck lclavicle rclavicle
    lowerneck upperneck
    upperneck head
    lclavicle lhumerus
    lhumerus lradius
    lradius lwrist
    lwrist lhand lthumb
    lhand lfingers
    rclavicle rhumerus
    rhumerus rradius
    rradius rwrist
    rwrist rhand rthumb
    rhand rfingers
  end

#!OML:ASF H:\Punching\Project 1\Capture day 1\Session 1\female.ASF
:FULLY-SPECIFIED
:DEGREES
61
root 0.173239 15.692 3.55932 10.0198 -12.3959 -4.28579
lowerback -4.47111 -1.56763 4.37073
upperback -7.29553 -2.15246 0.700259
thorax -5.20865 -1.29997 -1.70699
lowerneck -7.56619 -6.25206 -0.319159
upperneck 23.6847 -8.26551 -2.54959
head 8.50247 -4.24602 -1.58613
rclavicle -2.55438e-014 -1.61016e-014
rhumerus -41.2534 -9.72151 -73.8849
rradius 30.2416
rwrist 3.61092
rhand -8.05247 -9.01393
rfingers 7.12502
rthumb 17.8583 -38.214
lclavicle -2.55438e-014 -1.61016e-014
lhumerus -51.3608 20.0404 66.2342
lradius 38.703
lwrist -11.6849
lhand 0.168266 15.666
lfingers 7.12502
lthumb 25.7515 43.9435
rfemur -14.1797 11.3483 18.0311
rtibia 22.4094
rfoot -14.2757 -19.3929
rtoes -1.85414
lfemur -12.7648 -8.36771 -15.6125
ltibia 28.3625
lfoot -22.6917 23.2786
ltoes 3.61482
62
root 0.186346 15.6912 3.56278 10.0835 -12.4143 -4.29451
lowerback -4.49921 -1.542 4.42545
upperback -7.32494 -2.12168 0.649155
thorax -5.22699 -1.29002 -1.7909
lowerneck -7.93664 -6.08947 -0.303193
upperneck 24.585 -8.08992 -2.41925
head 8.88815 -4.14283 -1.57358
rclavicle -5.96354e-014 -5.76476e-015
rhumerus -41.404 -9.33108 -74.2707
rradius 30.9016
rwrist 2.61821
rhand -7.86434 -9.4331
rfingers 7.12502
rthumb 18.0394 -38.6165
lclavicle -5.96354e-014 -5.76476e-015
lhumerus -51.4275 19.9356 66.2397
lradius 39.7625
lwrist -10.404
lhand 0.223929 15.9833
lfingers 7.12502
lthumb 25.8048 44.253
rfemur -14.2226 11.3654 17.9641
rtibia 22.3916
rfoot -14.4494 -19.4143
rtoes -2.10091
lfemur -12.8577 -8.28659 -15.6437
ltibia 28.4071
lfoot -22.7372 23.2022
ltoes 3.76727
63
root 0.200504 15.6902 3.56695 10.1416 -12.4298 -4.29994
lowerback -4.53088 -1.51153 4.48162
upperback -7.35304 -2.08494 0.590394
thorax -5.24179 -1.27735 -1.8838
lowerneck -8.32353 -5.90491 -0.239048
upperneck 25.5689 -7.89433 -2.30009
head 9.30936 -4.02541 -1.57232
rclavicle 3.3694e-014 7.95139e-015
rhumerus -41.5507 -8.9559 -74.6511
rradius 31.6504
rwrist 1.61659
rhand -7.5524 -9.93862
rfingers 7.12502
rthumb 18.3395 -39.0941
lclavicle 3.3694e-014 7.95139e-015
lhumerus -51.4484 19.7639 66.3026
lradius 40.9284
lwrist -9.11611
lhand 0.201127 16.3395
lfingers 7.12502
lthumb 25.783 44.6125
rfemur -14.2574 11.3624 17.8908
rtibia 22.3768
rfoot -14.6762 -19.4154
rtoes -2.48547
lfemur -12.941 -8.21574 -15.6827
ltibia 28.4509
lfoot -22.7842 23.123
ltoes 3.90532
64
root 0.21576 15.6888 3.57165 10.1926 -12.4388 -4.30586
lowerback -4.56428 -1.47541 4.54215
upperback -7.37479 -2.04108 0.527191
thorax -5.24862 -1.26124 -1.98402
lowerneck -8.73069 -5.70117 -0.13152
upperneck 26.6176 -7.68224 -2.19178
head 9.76271 -3.89536 -1.58126
rclavicle -1.30949e-014 -5.96354e-016
rhumerus -41.6849 -8.60255 -75.0178
rradius 32.4867
rwrist 0.576032
rhand -7.15522 -10.4559
rfingers 7.12502
rthumb 18.7215 -39.575
lclavicle -1.30949e-014 -5.96354e-016
lhumerus -51.4183 19.5392 66.4189
lradius 42.1928
lwrist -7.8979
lhand 0.107265 16.6902
lfingers 7.12502
lthumb 25.6931 44.9762
rfemur -14.2818 11.3347 17.8165
rtibia 22.3648
rfoot -14.9401 -19.3959
rtoes -2.98162
lfemur -13.0149 -8.15391 -15.7254
ltibia 28.4971
lfoot -22.8318 23.0383
ltoes 4.02315
65
root 0.231996 15.6871 3.57644 10.2365 -12.439 -4.31713
lowerback -4.59297 -1.43337 4.60653
upperback -7.38646 -1.98929 0.463367
thorax -5.24681 -1.24102 -2.0872
lowerneck -9.16573 -5.4795 0.0158296
upperneck 27.7129 -7.45595 -2.0904
head 10.2458 -3.75318 -1.5984
rclavicle 2.9768e-014 -1.17283e-014
rhumerus -41.7969 -8.27027 -75.3714
rradius 33.4133
rwrist -0.551273
rhand -6.70921 -10.9626
rfingers 7.12502
rthumb 19.1505 -40.0397
lclavicle 2.9768e-014 -1.17283e-014
lhumerus -51.3323 19.2745 66.5857
lradius 43.5713
lwrist -6.78762
lhand 0.00620836 17.0848
lfingers 7.12502
lthumb 25.5963 45.3847
rfemur -14.2975 11.2866 17.7477
rtibia 22.3567
rfoot -15.2143 -19.3626
rtoes -3.53812
lfemur -13.0826 -8.09208 -15.7657
ltibia 28.5475
lfoot -22.8675 22.9433
ltoes 4.09187
66
root 0.249286 15.6851 3.58127 10.2688 -12.4278 -4.32881
lowerback -4.61063 -1.38984 4.66581
upperback -7.38854 -1.93485 0.403029
thorax -5.24021 -1.21877 -2.18382
lowerneck -9.61341 -5.23807 0.198897
upperneck 28.8276 -7.2119 -1.99613
head 10.7481 -3.59762 -1.62113
rclavicle -6.70898e-015 -7.55382e-015
rhumerus -41.8864 -7.94348 -75.7103
rradius 34.4389
rwrist -1.79061
rhand -6.24963 -11.4486
rfingers 7.12502
rthumb 19.5924 -40.4814
lclavicle -6.70898e-015 -7.55382e-015
lhumerus -51.2037 18.985 66.7938
lradius 45.0602
lwrist -5.81335
lhand -0.102051 17.4953
lfingers 7.12502
lthumb 25.4926 45.8101
rfemur -14.3021 11.2103 17.6803
rtibia 22.3539
rfoot -15.476 -19.3132
rtoes -4.09784
lfemur -13.1417 -8.03611 -15.8092
ltibia 28.6028
lfoot -22.898 22.8382
ltoes 4.13778
67
root 0.267564 15.6829 3.58576 10.2895 -12.4054 -4.33931
lowerback -4.61497 -1.34244 4.71648
upperback -7.37765 -1.87448 0.345583
thorax -5.2261 -1.19254 -2.27257
lowerneck -10.0786 -4.98133 0.4148
upperneck 29.9435 -6.95699 -1.90414
head 11.2658 -3.43134 -1.64754
rclavicle -3.72721e-014 -3.97569e-015
rhumerus -41.9445 -7.61958 -76.0369
rradius 35.5722
rwrist -3.16646
rhand -5.81037 -11.9301
rfingers 7.12502
rthumb 20.0146 -40.9193
lclavicle -3.72721e-014 -3.97569e-015
lhumerus -51.0168 18.673 67.0443
lradius 46.6513
lwrist -4.96689
lhand -0.214673 17.9088
lfingers 7.12502
lthumb 25.3847 46.2389
rfemur -14.3009 11.1005 17.613
rtibia 22.3598
rfoot -15.7064 -19.2434
rtoes -4.62127
lfemur -13.195 -7.98359 -15.8567
ltibia 28.6618
lfoot -22.9205 22.7213
ltoes 4.16261
